<svg width="21" height="25" viewBox="0 0 21 25" fill="none" xmlns="http://www.w3.org/2000/svg">
<path d="M20.7084 23.1739L17.5754 19.3916V3.48481C17.5754 2.59405 17.126 1.76839 16.3932 1.32302C15.6604 0.877641 14.7551 0.874215 14.019 1.31617L6.78572 5.67058H6.16042L1.71167 0.332911C1.35342 -0.0679277 0.763943 -0.112465 0.353589 0.230132C0.148413 0.415134 0.0213982 0.675508 0.00185758 0.959864C-0.0144263 1.24422 0.0767635 1.52172 0.259143 1.73071L3.46381 5.67058H2.98832C1.6791 5.67743 0.620645 6.79087 0.614132 8.16811V16.733C0.620645 18.1103 1.6791 19.2237 2.98832 19.2306H6.78898L14.0223 23.585C14.3838 23.7974 14.7909 23.9105 15.2012 23.9139C16.1392 23.9242 16.9925 23.3452 17.3735 22.4441L19.1908 24.6299C19.3797 24.8663 19.6565 24.9999 19.9529 24.9999C20.2004 25.0033 20.4381 24.9074 20.6173 24.7293C20.842 24.5477 20.9788 24.2702 20.9983 23.9755C21.0146 23.6775 20.9136 23.3863 20.7117 23.1739H20.7084ZM15.0384 3.18675C15.1426 3.11137 15.2761 3.11137 15.3771 3.18675C15.4781 3.24841 15.5399 3.3649 15.5399 3.48823V16.9489L8.07541 7.9694V7.36986L15.0384 3.18675ZM2.98832 17.0928C2.80269 17.0928 2.64962 16.9317 2.64962 16.7365V8.17154C2.64962 7.97626 2.79943 7.81524 2.98832 7.81524H5.24201L6.04318 8.77108V17.0928H2.98832ZM15.5399 21.3752C15.5399 21.4986 15.4781 21.6151 15.3771 21.6767C15.2761 21.7487 15.1394 21.7487 15.0384 21.6767L8.07541 17.4936V11.2275L15.5399 20.1933V21.3787V21.3752Z" fill="white"/>
</svg>
